<?xml version="1.0" encoding="UTF-8"?>
<svg id="Layer_2" data-name="Layer 2" xmlns="http://www.w3.org/2000/svg" viewBox="0 0 28.96 25.4">
  <g id="desktop">
    <g id="work">
      <g id="butons-grid">
        <g id="code-icon">
          <path d="M25.15,2.03H3.8c-.98,0-1.78,.8-1.78,1.78V21.59c0,.98,.8,1.78,1.78,1.78H25.15c.98,0,1.78-.8,1.78-1.78V3.81c0-.98-.8-1.78-1.78-1.78ZM7.1,14.22c-.35,.35-.91,.35-1.26,0-.35-.35-.35-.91,0-1.26l2.93-2.93-2.93-2.93c-.35-.35-.35-.91,0-1.26,.35-.35,.91-.35,1.26,0l3.55,3.56c.35,.35,.35,.91,0,1.26l-3.55,3.56Zm10.04,1.15h-5.33c-.49,0-.89-.4-.89-.89s.4-.89,.89-.89h5.33c.49,0,.89,.4,.89,.89s-.4,.89-.89,.89Z" style="fill: #666;"/>
          <path d="M18.03,14.48c0,.49-.4,.89-.89,.89h-5.33c-.49,0-.89-.4-.89-.89s.4-.89,.89-.89h5.33c.49,0,.89,.4,.89,.89Z" style="fill: none; stroke: #000; stroke-miterlimit: 10; stroke-width: .5px;"/>
          <path d="M10.66,10.66l-3.55,3.56c-.35,.35-.91,.35-1.26,0-.35-.35-.35-.91,0-1.26l2.93-2.93-2.93-2.93c-.35-.35-.35-.91,0-1.26,.35-.35,.91-.35,1.26,0l3.55,3.56c.35,.35,.35,.91,0,1.26Z" style="fill: none; stroke: #000; stroke-miterlimit: 10; stroke-width: .5px;"/>
          <path d="M25.15,.25H3.8C1.84,.25,.25,1.84,.25,3.81V21.59c0,1.96,1.59,3.56,3.55,3.56H25.15c1.96,0,3.56-1.59,3.56-3.56V3.81c0-1.96-1.59-3.56-3.56-3.56Zm1.78,21.34c0,.98-.8,1.78-1.78,1.78H3.8c-.98,0-1.78-.8-1.78-1.78V3.81c0-.98,.8-1.78,1.78-1.78H25.15c.98,0,1.78,.8,1.78,1.78V21.59Z" style="fill: none; stroke: #000; stroke-miterlimit: 10; stroke-width: .5px;"/>
        </g>
      </g>
    </g>
  </g>
</svg>