<?xml version="1.0" encoding="UTF-8"?>
<svg id="Layer_2" data-name="Layer 2" xmlns="http://www.w3.org/2000/svg" viewBox="0 0 62.47 51.75">
  <g id="desktop">
    <g id="work">
      <path d="M52.89,4.29C48.84,2.27,44.56,.83,40.17,0c-.04,0-.08,0-.12,.02-.04,.02-.07,.05-.09,.09-.55,1.06-1.16,2.45-1.59,3.53-4.73-.78-9.55-.78-14.28,0-.47-1.21-1.01-2.39-1.61-3.53-.02-.04-.05-.07-.09-.09-.04-.02-.08-.03-.12-.02-4.39,.82-8.67,2.27-12.72,4.29-.03,.01-.06,.04-.08,.08C1.39,17.52-.83,30.35,.26,43.01c0,.06,.04,.12,.08,.16,4.72,3.8,9.99,6.69,15.6,8.57,.04,.01,.08,.01,.12,0,.04-.01,.07-.04,.1-.08,1.2-1.78,2.27-3.66,3.19-5.64,.01-.03,.02-.06,.02-.09,0-.03,0-.06-.01-.09-.01-.03-.03-.05-.05-.07-.02-.02-.04-.04-.07-.05-1.68-.7-3.31-1.55-4.87-2.52-.03-.02-.05-.04-.07-.07-.02-.03-.03-.07-.03-.1,0-.04,0-.07,.02-.1,.01-.03,.03-.06,.06-.08,.33-.27,.66-.55,.97-.83,.03-.02,.06-.04,.1-.04,.04,0,.07,0,.1,.02,10.23,5.08,21.3,5.08,31.4,0,.03-.02,.07-.02,.11-.02,.04,0,.07,.02,.1,.05,.31,.28,.64,.56,.97,.83,.03,.02,.05,.05,.06,.08,.01,.03,.02,.07,.02,.1,0,.04-.01,.07-.03,.1-.02,.03-.04,.06-.07,.07-1.56,.99-3.19,1.83-4.88,2.52-.03,.01-.05,.03-.07,.05-.02,.02-.04,.05-.05,.08,0,.03-.01,.06-.01,.09,0,.03,0,.06,.02,.09,.94,1.97,2.01,3.86,3.19,5.64,.02,.04,.06,.06,.1,.08,.04,.01,.08,.02,.12,0,5.62-1.87,10.9-4.77,15.62-8.57,.02-.02,.04-.04,.06-.07s.02-.06,.02-.09c1.3-14.64-2.18-27.37-9.24-38.64,0-.02-.02-.04-.03-.05s-.03-.02-.05-.03ZM20.88,35.3c-3.08,0-5.61-3.07-5.61-6.84s2.49-6.84,5.61-6.84,5.66,3.1,5.61,6.84c0,3.77-2.49,6.84-5.61,6.84Zm20.76,0c-3.08,0-5.61-3.07-5.61-6.84s2.49-6.84,5.61-6.84,5.67,3.1,5.61,6.84c0,3.77-2.46,6.84-5.61,6.84Z" style="fill: #666;"/>
    </g>
  </g>
</svg>