<?xml version="1.0" encoding="UTF-8"?>
<svg id="Layer_2" data-name="Layer 2" xmlns="http://www.w3.org/2000/svg" viewBox="0 0 52.64 52.42">
  <g id="desktop">
    <g id="work">
      <path d="M26.32,0C11.78,0,0,12.03,0,26.87c0,11.89,7.53,21.93,18,25.5,1.32,.24,1.81-.57,1.81-1.28,0-.64-.03-2.75-.03-5-6.61,1.24-8.32-1.65-8.85-3.16-.3-.77-1.58-3.16-2.7-3.8-.92-.5-2.24-1.75-.03-1.78,2.07-.03,3.55,1.95,4.05,2.75,2.37,4.06,6.15,2.92,7.67,2.22,.23-1.75,.92-2.92,1.68-3.59-5.86-.67-11.97-2.99-11.97-13.27,0-2.92,1.02-5.34,2.7-7.22-.26-.67-1.18-3.43,.26-7.12,0,0,2.2-.71,7.24,2.75,2.11-.6,4.34-.91,6.58-.91s4.47,.3,6.58,.91c5.03-3.49,7.24-2.75,7.24-2.75,1.45,3.69,.53,6.45,.26,7.12,1.68,1.88,2.7,4.27,2.7,7.22,0,10.31-6.15,12.6-12.01,13.27,.95,.84,1.78,2.45,1.78,4.97,0,3.59-.03,6.48-.03,7.39,0,.71,.49,1.55,1.81,1.28,5.22-1.8,9.76-5.23,12.98-9.8,3.22-4.57,4.95-10.06,4.95-15.69C52.64,12.03,40.86,0,26.32,0Z" style="fill: #666;"/>
    </g>
  </g>
</svg>