<?xml version="1.0" encoding="UTF-8"?>
<svg id="Layer_2" data-name="Layer 2" xmlns="http://www.w3.org/2000/svg" viewBox="0 0 52.89 52.89">
  <g id="desktop">
    <g id="work">
      <path d="M0,3.79C0,1.7,1.74,0,3.88,0H49c2.14,0,3.88,1.7,3.88,3.79V49.1c0,2.09-1.74,3.79-3.88,3.79H3.88c-2.14,0-3.88-1.7-3.88-3.79V3.79ZM16.34,44.27V20.39h-7.94v23.88h7.94Zm-3.97-27.14c2.77,0,4.49-1.83,4.49-4.13-.05-2.34-1.72-4.13-4.44-4.13s-4.49,1.78-4.49,4.13,1.72,4.13,4.39,4.13h.05Zm16.23,27.14v-13.34c0-.71,.05-1.43,.26-1.94,.57-1.43,1.88-2.9,4.07-2.9,2.87,0,4.02,2.19,4.02,5.4v12.78h7.94v-13.69c0-7.34-3.92-10.75-9.14-10.75-4.21,0-6.1,2.31-7.15,3.94v.08h-.05s.04-.05,.05-.08v-3.38h-7.94c.1,2.24,0,23.88,0,23.88h7.94Z" style="fill: #666;"/>
    </g>
  </g>
</svg>