<?xml version="1.0" encoding="UTF-8"?>
<svg id="Layer_2" data-name="Layer 2" xmlns="http://www.w3.org/2000/svg" viewBox="0 0 51.75 51.75">
  <g id="desktop">
    <g id="work">
      <g>
        <path d="M10.87,32.7c0,2.99-2.44,5.44-5.44,5.44s-5.44-2.44-5.44-5.44,2.44-5.44,5.44-5.44h5.44v5.44Z" style="fill: #666;"/>
        <path d="M13.61,32.7c0-2.99,2.44-5.44,5.44-5.44s5.44,2.44,5.44,5.44v13.61c0,2.99-2.44,5.44-5.44,5.44s-5.44-2.44-5.44-5.44v-13.61Z" style="fill: #666;"/>
        <path d="M19.05,10.87c-2.99,0-5.44-2.44-5.44-5.44S16.06,0,19.05,0s5.44,2.44,5.44,5.44v5.44h-5.44Z" style="fill: #666;"/>
        <path d="M19.05,13.61c2.99,0,5.44,2.44,5.44,5.44s-2.44,5.44-5.44,5.44H5.44c-2.99,0-5.44-2.44-5.44-5.44s2.44-5.44,5.44-5.44h13.61Z" style="fill: #666;"/>
        <path d="M40.88,19.05c0-2.99,2.44-5.44,5.44-5.44s5.44,2.44,5.44,5.44-2.44,5.44-5.44,5.44h-5.44v-5.44Z" style="fill: #666;"/>
        <path d="M38.14,19.05c0,2.99-2.44,5.44-5.44,5.44s-5.44-2.44-5.44-5.44V5.44c0-2.99,2.44-5.44,5.44-5.44s5.44,2.44,5.44,5.44v13.61Z" style="fill: #666;"/>
        <path d="M32.7,40.88c2.99,0,5.44,2.44,5.44,5.44s-2.44,5.44-5.44,5.44-5.44-2.44-5.44-5.44v-5.44h5.44Z" style="fill: #666;"/>
        <path d="M32.7,38.14c-2.99,0-5.44-2.44-5.44-5.44s2.44-5.44,5.44-5.44h13.61c2.99,0,5.44,2.44,5.44,5.44s-2.44,5.44-5.44,5.44h-13.61Z" style="fill: #666;"/>
      </g>
    </g>
  </g>
</svg>