<?xml version="1.0" encoding="UTF-8"?>
<svg id="Layer_2" data-name="Layer 2" xmlns="http://www.w3.org/2000/svg" viewBox="0 0 28.96 25.4">
  <g id="desktop">
    <g id="work">
      <g id="butons-grid">
        <g id="web-icon">
          <path d="M23.37,3.81C2.99,4.86,3.43-1.68,3.81,19.82c-.98,0-1.78-.8-1.78-1.78V3.81c0-.98,.8-1.78,1.78-1.78H21.59c.98,0,1.78,.8,1.78,1.78Z" style="fill: #666;"/>
          <path d="M25.15,5.59H7.36c-2.56-.07-1.61,3.84-1.78,5.34H26.93c-.17-1.51,.78-5.4-1.78-5.34Zm-16.9,3.56c-1.15,.02-1.15-1.8,0-1.78,1.15-.02,1.15,1.8,0,1.78Zm2.67,0c-1.15,.02-1.15-1.8,0-1.78,1.15-.02,1.16,1.8,0,1.78Zm2.67,0c-1.16,.02-1.15-1.8,0-1.78,1.15-.02,1.15,1.8,0,1.78Z" style="fill: #666;"/>
          <path d="M26.93,12.7v8.89c0,.98-.8,1.78-1.78,1.78C3.39,22.43,5.52,27.79,5.59,12.7H26.93Z" style="fill: #666;"/>
          <path d="M9.14,8.26c.02,1.15-1.79,1.15-1.78,0-.02-1.16,1.79-1.16,1.78,0Z" style="fill: none; stroke: #000; stroke-miterlimit: 10; stroke-width: .5px;"/>
          <path d="M11.81,8.26c.02,1.15-1.8,1.15-1.78,0-.02-1.16,1.8-1.15,1.78,0Z" style="fill: none; stroke: #000; stroke-miterlimit: 10; stroke-width: .5px;"/>
          <path d="M14.48,8.26c.02,1.15-1.8,1.15-1.78,0-.02-1.15,1.8-1.16,1.78,0Z" style="fill: none; stroke: #000; stroke-miterlimit: 10; stroke-width: .5px;"/>
          <path d="M25.15,3.81c0-1.96-1.59-3.56-3.56-3.56H3.81C1.84,.25,.25,1.84,.25,3.81v14.23c0,1.96,1.59,3.56,3.56,3.56,0,1.96,1.59,3.56,3.56,3.56H25.15c1.96,0,3.56-1.59,3.56-3.56V7.36c0-1.96-1.59-3.56-3.56-3.56ZM3.81,7.36v12.45c-.98,0-1.78-.8-1.78-1.78V3.81c0-.98,.8-1.78,1.78-1.78H21.59c.98,0,1.78,.8,1.78,1.78H7.36c-1.97,0-3.56,1.59-3.56,3.56Zm23.12,14.23c0,.98-.8,1.78-1.78,1.78H7.36c-.99,0-1.78-.8-1.78-1.78V12.7H26.93v8.89Zm0-10.67H5.59c.19-1.51-.8-5.4,1.78-5.34,0,0,17.78,0,17.78,0,2.55-.06,1.61,3.84,1.78,5.34Z" style="fill: none; stroke: #000; stroke-miterlimit: 10; stroke-width: .5px;"/>
        </g>
      </g>
    </g>
  </g>
</svg>